<svg id="Layer_3" enable-background="new 0 0 60 60" height="512" viewBox="0 0 60 60" width="512" xmlns="http://www.w3.org/2000/svg"><circle cx="30" cy="24.394" r="8.443"/><path d="m51.1500244 22.1700439-4.9800415-4.5599976c-1.8599854-1.710022-4.7099609-1.6400146-6.4899902.1599731-.3300171.3300171-.5999756.7000122-.8200073 1.1099854 1 1.6000366 1.5800171 3.4899902 1.5800171 5.5100098 0 .2299805-.0100098.4500122-.0200195.6799927l5.3900146 5.25-3.1500244 1.5200195h-5.3399658c-1.8800049 1.8499756-4.4700317 3-7.3200073 3s-5.4400024-1.1500244-7.3200073-3h-5.3399658l-3.1500244-1.5200195 5.3900146-5.25c-.0100098-.2299805-.0200195-.4500122-.0200195-.6799927 0-2.0200195.5800171-3.9099731 1.5800171-5.5100098-.210022-.3999634-.4899902-.7799683-.8200073-1.1099854-1.7800293-1.7999878-4.6300049-1.8699951-6.4899902-.1599731l-4.9800415 4.5599976c-2.0699463 1.8999634-3.2599487 4.5999756-3.2599487 7.4099731 0 4.4199829 2.8299561 8.2800293 7.0499878 9.5999756l3.4799805 1.0800171v13.7399903c0 .5500488.4400024 1 1 1h25.7600098c.5599976 0 1-.4499512 1-1v-13.7399902l3.4799805-1.0800171c4.2200314-1.3199463 7.0499874-5.1799927 7.0499874-9.5999756 0-2.8099976-1.1900024-5.5100098-3.2599487-7.4099732z"/><path d="m21.6690674 7.9643555c-.2773438-.4785156-.890625-.6425781-1.3662109-.3662109-.4785156.2763672-.6425781.8881836-.3662109 1.3662109l2.1386719 3.7036133c.1855469.3208008.5214844.5.8671875.5.1699219 0 .3417969-.0429688.4990234-.1337891.4785156-.2763672.6425781-.8881836.3662109-1.3662109z"/><path d="m31 10.2800293v-4.2800293c0-.5499878-.4500122-1-1-1s-1 .4500122-1 1v4.2800293c0 .5499878.4500122 1 1 1s1-.4500122 1-1z"/><path d="m37.0599976 13.1700439c.3400269 0 .6799927-.1800537.8599854-.5l2.1400146-3.710022c.2800293-.4700317.1199951-1.0900269-.3599854-1.3599854-.4800415-.2800293-1.0900269-.1100464-1.3699951.3599854l-2.1400146 3.710022c-.2700195.4799805-.1099854 1.0899658.3699951 1.3599854.1599731.0899658.330017.1400146.5.1400146z"/></svg>