<svg id="Genders" enable-background="new 0 0 64 64" height="512" viewBox="0 0 64 64" width="512" xmlns="http://www.w3.org/2000/svg"><path d="m63.99992 23.27309c0-8.82236-7.17764-16-16-16s-16 7.17764-16 16c0 7.78328 5.58816 14.2783 12.96117 15.70283v5.66392h-3.42c-1.67768 0-3.03883 1.36049-3.03883 3.03883s1.36114 3.03883 3.03883 3.03883h3.42v2.97156c0 1.67834 1.36114 3.03883 3.03883 3.03883s3.03883-1.36048 3.03883-3.03883v-2.97156h3.42c1.67768 0 3.03883-1.36048 3.03883-3.03883s-1.36114-3.03883-3.03883-3.03883h-3.42v-5.66392c7.373-1.42454 12.96117-7.91955 12.96117-15.70283zm-25.92235 0c0-5.47094 4.4514-9.92235 9.92235-9.92235s9.92235 4.45141 9.92235 9.92235c0 5.4716-4.4514 9.92301-9.92235 9.92301s-9.92235-4.45141-9.92235-9.92301zm-19.03883 1.75261v-7.85483l1.27541 1.15687c.58165.52823 1.31234.78806 2.04039.78806.82829 0 1.65263-.33633 2.25274-.99712 1.12637-1.2431 1.03273-3.16478-.20971-4.29247l-6.35595-5.76507c-.00387.00198-.00602.00371-.00989.00569-.53928-.48834-1.24738-.79375-2.03182-.79375-.78592 0-1.49542.30649-2.03503.79639-.00272-.00313-.00396-.00519-.00668-.00833l-6.35595 5.76507c-1.24244 1.12769-1.33608 3.04938-.20971 4.29247.60012.66145 1.42446.99712 2.25275.99712.72805 0 1.45874-.26049 2.04039-.78806l1.27541-1.15687v7.85483c-7.37301 1.42454-12.96117 7.91947-12.96117 15.70217 0 8.82236 7.17764 16 16 16s16-7.17764 16-16c0-7.7827-5.58817-14.27763-12.96118-15.70217zm-3.03882 25.62452c-5.47094 0-9.92235-4.4514-9.92235-9.92235s4.45141-9.92235 9.92235-9.92235 9.92235 4.45141 9.92235 9.92235-4.45141 9.92235-9.92235 9.92235z"/></svg>