<?xml version="1.0" encoding="iso-8859-1"?>
<!-- Generator: Adobe Illustrator 16.0.0, SVG Export Plug-In . SVG Version: 6.00 Build 0)  -->
<!DOCTYPE svg PUBLIC "-//W3C//DTD SVG 1.1//EN" "http://www.w3.org/Graphics/SVG/1.1/DTD/svg11.dtd">
<svg version="1.1" id="Capa_1" xmlns="http://www.w3.org/2000/svg" xmlns:xlink="http://www.w3.org/1999/xlink" x="0px" y="0px"
	 width="188.599px" height="188.599px" viewBox="0 0 188.599 188.599" style="enable-background:new 0 0 188.599 188.599;"
	 xml:space="preserve">
<g>
	<g>
		<path d="M80.472,6.215c0,0-35.966,1.718-40.245,44.528c0,0-0.425,11.554-8.131,16.26c0,0-11.991,7.705-5.993,28.251
			c0,0,2.571,12.847-8.565,20.126c0,0-9.416,8.135-3.416,19.697c0,0,3.854,3.857-3,10.703c0,0-5.995,10.703,4.282,25.259
			c0,0-1.282-10.692,1.283-13.265c0,0,8.988,10.692,6.854,17.981c0,0,14.558-8.138,35.53-9.845c0,0,25.26-4.722,22.695-36.818
			c0,0-23.547-18.41-22.695-34.684l2.998-23.97c0,0,9.85-11.976,10.704-16.692c0,0,6.85,10.271-1.716,17.977
			c0,0,14.988-3.427,9.851-24.835c0,0,3.419-7.705,5.565-7.272c0,0,7.277,18.832,28.691,20.12c0,0,3.414,21.398,16.689,23.546
			c0,0,0.428,32.102-18.413,45.381c0,0-4.279,37.676,33.396,39.389c0,0-6.851,17.121,8.133,20.546c0,0-2.567-16.694,9.848-16.694
			l5.565,6.841c0,0,13.275-16.69,7.278-28.242c0,0-12.414-5.997-7.703-21.833c0,0,7.703-5.986-3.001-13.701c0,0-2.14-3,1.73-6.419
			c0,0,13.266-11.136-8.997-35.539l-0.846-22.263c0,0-5.994-33.39-46.662-49.237C112.166,1.506,83.043-4.064,80.472,6.215z"/>
	</g>
</g>
<g>
</g>
<g>
</g>
<g>
</g>
<g>
</g>
<g>
</g>
<g>
</g>
<g>
</g>
<g>
</g>
<g>
</g>
<g>
</g>
<g>
</g>
<g>
</g>
<g>
</g>
<g>
</g>
<g>
</g>
</svg>
